<svg xmlns="http://www.w3.org/2000/svg" width="134.19" height="27.457" viewBox="0 0 134.19 27.457"><defs><style>.a{fill:#ccc;}</style></defs><g transform="translate(-2985.185 -4561.432)"><path class="a" d="M2989.539,4567.614h1.137v5.443h4.754v1.6h-4.754v9.653a5.09,5.09,0,0,0,.216,1.761,1.851,1.851,0,0,0,.736.864,2.1,2.1,0,0,0,1.161.337,5.844,5.844,0,0,0,3.362-1.361v1.553a7.509,7.509,0,0,1-4.251,1.424,4.49,4.49,0,0,1-2.206-.544,3.081,3.081,0,0,1-1.347-1.281,6.365,6.365,0,0,1-.361-2.561v-9.845h-2.8v-1.345a5.5,5.5,0,0,0,2.177-.944,4.768,4.768,0,0,0,1.341-1.665A10.984,10.984,0,0,0,2989.539,4567.614Z"/><path class="a" d="M3008.9,4579.236l0-1.745a3,3,0,0,0-.995-2.537,4.535,4.535,0,0,0-2.807-.76,5.158,5.158,0,0,0-1.572.216,2.855,2.855,0,0,0-1.083.592,2.328,2.328,0,0,0-.6.857q-.081.176-.385,1.36-.369,1.441-1.489,1.441a1.337,1.337,0,0,1-1.032-.424,1.619,1.619,0,0,1-.393-1.145,3.371,3.371,0,0,1,.785-2.073,5.68,5.68,0,0,1,2.393-1.681,9.928,9.928,0,0,1,3.8-.664,8.782,8.782,0,0,1,3.506.631,4.42,4.42,0,0,1,2.145,1.815,6.414,6.414,0,0,1,.48,2.975v6.156a11.2,11.2,0,0,0,.08,1.711,1.835,1.835,0,0,0,.617,1.032,1.8,1.8,0,0,0,1.144.344,5.752,5.752,0,0,0,1.761-.339v1.4a8.7,8.7,0,0,1-2.385.384,5.023,5.023,0,0,1-1.913-.32,3.064,3.064,0,0,1-1.913-2.4,14.322,14.322,0,0,1-3.474,2.113,8.524,8.524,0,0,1-3.137.608,5.26,5.26,0,0,1-3.586-1.2,3.606,3.606,0,0,1-.872-4.675,4.636,4.636,0,0,1,1.538-1.553,10.6,10.6,0,0,1,3.246-1.184A53.934,53.934,0,0,1,3008.9,4579.236Zm-.008,1.393q-3.717.545-4.6.753a8.459,8.459,0,0,0-2.5.88,3.165,3.165,0,0,0-1.073,1.033,2.3,2.3,0,0,0-.321,1.176,2.279,2.279,0,0,0,.361,1.209,2.507,2.507,0,0,0,1.017.92,3.018,3.018,0,0,0,1.394.336,6.745,6.745,0,0,0,2.354-.5,16.414,16.414,0,0,0,3.365-1.937Z"/><path class="a" d="M3015.823,4567.694v-1.329a9.914,9.914,0,0,0,4.242-1.344h1.185v19.706a4.528,4.528,0,0,0,.16,1.569,1.345,1.345,0,0,0,.608.656,3.784,3.784,0,0,0,1.537.208h.512v1.345h-8.244v-1.345h.832a2.308,2.308,0,0,0,1.177-.238,1.34,1.34,0,0,0,.56-.652,5.234,5.234,0,0,0,.168-1.655v-16.921Z"/><path class="a" d="M3039.138,4584.375l1.024.832a13.8,13.8,0,0,1-2.265,2.21,7.586,7.586,0,0,1-2.073,1.144,7.2,7.2,0,0,1-2.289.328,7.831,7.831,0,0,1-4-.96,7.733,7.733,0,0,1-2.9-2.882,8.356,8.356,0,0,1-1.008-4.194,8.918,8.918,0,0,1,.976-4.322,7.243,7.243,0,0,1,2.73-2.826,7.847,7.847,0,0,1,4.058-1.032,7.6,7.6,0,0,1,2.977.535,5.5,5.5,0,0,1,2.145,1.613,6.856,6.856,0,0,1,1.281,2.467,8.948,8.948,0,0,1,.256,2.108h-11.318q-.048.786-.048,1.172a8.755,8.755,0,0,0,.7,3.6,5.155,5.155,0,0,0,1.865,2.326,4.764,4.764,0,0,0,2.633.746,5.336,5.336,0,0,0,2.417-.585A11.7,11.7,0,0,0,3039.138,4584.375Zm-2.049-6.467a6.109,6.109,0,0,0-.681-2.178,3.117,3.117,0,0,0-1.248-1.12,3.919,3.919,0,0,0-1.817-.416,4.37,4.37,0,0,0-1.889.416,4.049,4.049,0,0,0-1.465,1.152,6.609,6.609,0,0,0-1.017,2.146Z"/><path class="a" d="M3042.106,4575.346v-1.329a11.792,11.792,0,0,0,2.129-.384,12.414,12.414,0,0,0,2.033-.96h1.153v3.041a15.246,15.246,0,0,1,3.6-2.409,7.713,7.713,0,0,1,3.029-.632,5.748,5.748,0,0,1,2.318.44,4.4,4.4,0,0,1,1.639,1.193,3.9,3.9,0,0,1,.839,1.713,9.239,9.239,0,0,1,.128,1.793v7.043a4.386,4.386,0,0,0,.184,1.625,1.077,1.077,0,0,0,.585.52,7.044,7.044,0,0,0,1.969.16v1.345h-8.229v-1.345h.449a3.964,3.964,0,0,0,1.568-.208,1.252,1.252,0,0,0,.6-.608,4.651,4.651,0,0,0,.184-1.633v-5.891a7.358,7.358,0,0,0-.3-2.529,2.453,2.453,0,0,0-1.009-1.145,3.378,3.378,0,0,0-1.8-.44,6.755,6.755,0,0,0-2.77.664,10.453,10.453,0,0,0-2.849,1.961v7.38a4.841,4.841,0,0,0,.184,1.665,1.241,1.241,0,0,0,.6.624,4.222,4.222,0,0,0,1.537.16h.464v1.345h-8.26v-1.345h.4a4.407,4.407,0,0,0,1.627-.2,1.15,1.15,0,0,0,.612-.712,8.35,8.35,0,0,0,.1-1.761v-9.141Z"/><path class="a" d="M3067.567,4567.614h1.136v5.443h4.755v1.6H3068.7v9.653a5.09,5.09,0,0,0,.216,1.761,1.855,1.855,0,0,0,.737.864,2.089,2.089,0,0,0,1.16.337,5.84,5.84,0,0,0,3.362-1.361v1.553a7.509,7.509,0,0,1-4.25,1.424,4.488,4.488,0,0,1-2.206-.544,3.07,3.07,0,0,1-1.347-1.281,6.364,6.364,0,0,1-.361-2.561v-9.845h-2.8v-1.345a5.491,5.491,0,0,0,2.177-.944,4.774,4.774,0,0,0,1.342-1.665A11.01,11.01,0,0,0,3067.567,4567.614Z"/><path class="a" d="M3075.273,4575.346v-1.329a10.389,10.389,0,0,0,4.291-1.344h1.168v12.839a2.081,2.081,0,0,0,.192,1.008,1.126,1.126,0,0,0,.537.488,3.5,3.5,0,0,0,1.257.152h.752v1.345h-8.2v-1.345h.657a3.553,3.553,0,0,0,1.44-.192,1.094,1.094,0,0,0,.521-.544,5.358,5.358,0,0,0,.152-1.649v-9.429Z"/><path class="a" d="M3098.989,4584.039l1.024.832q-3.009,4.018-7.219,4.018a7.4,7.4,0,0,1-5.539-2.337,8.034,8.034,0,0,1-2.257-5.811,8.307,8.307,0,0,1,1.048-4.17,7.367,7.367,0,0,1,2.914-2.874,8.749,8.749,0,0,1,4.282-1.024,7.555,7.555,0,0,1,4.594,1.352q1.842,1.353,1.841,2.73a1.474,1.474,0,0,1-.432,1.137,1.4,1.4,0,0,1-.976.4,1.186,1.186,0,0,1-.561-.144,2.118,2.118,0,0,1-.56-.465,4.787,4.787,0,0,1-.464-.9,8.053,8.053,0,0,0-.673-1.249,3.516,3.516,0,0,0-2.849-1.376,4.547,4.547,0,0,0-2.521.752,5.127,5.127,0,0,0-1.841,2.217,8.242,8.242,0,0,0-.681,3.5,7.188,7.188,0,0,0,1.681,5.011,4.543,4.543,0,0,0,3.474,1.6,6.019,6.019,0,0,0,1.881-.313,6.6,6.6,0,0,0,1.8-.92A15.3,15.3,0,0,0,3098.989,4584.039Z"/><path class="a" d="M3113.016,4579.236l0-1.745a2.994,2.994,0,0,0-1-2.537,4.532,4.532,0,0,0-2.807-.76,5.156,5.156,0,0,0-1.572.216,2.863,2.863,0,0,0-1.083.592,2.331,2.331,0,0,0-.6.857q-.079.176-.385,1.36-.367,1.441-1.489,1.441a1.337,1.337,0,0,1-1.032-.424,1.619,1.619,0,0,1-.392-1.145,3.369,3.369,0,0,1,.784-2.073,5.679,5.679,0,0,1,2.393-1.681,9.927,9.927,0,0,1,3.8-.664,8.78,8.78,0,0,1,3.506.631,4.42,4.42,0,0,1,2.145,1.815,6.4,6.4,0,0,1,.481,2.975v6.156a11.056,11.056,0,0,0,.08,1.711,1.828,1.828,0,0,0,.616,1.032,1.807,1.807,0,0,0,1.145.344,5.765,5.765,0,0,0,1.761-.339v1.4a8.7,8.7,0,0,1-2.386.384,5.023,5.023,0,0,1-1.913-.32,3.063,3.063,0,0,1-1.913-2.4,14.3,14.3,0,0,1-3.474,2.113,8.523,8.523,0,0,1-3.137.608,5.259,5.259,0,0,1-3.586-1.2,3.607,3.607,0,0,1-.872-4.675,4.637,4.637,0,0,1,1.538-1.553,10.607,10.607,0,0,1,3.246-1.184A53.94,53.94,0,0,1,3113.016,4579.236Zm-.008,1.393q-3.716.545-4.6.753a8.459,8.459,0,0,0-2.5.88,3.16,3.16,0,0,0-1.073,1.033,2.3,2.3,0,0,0-.32,1.176,2.277,2.277,0,0,0,.36,1.209,2.507,2.507,0,0,0,1.017.92,3.019,3.019,0,0,0,1.394.336,6.756,6.756,0,0,0,2.355-.5,16.438,16.438,0,0,0,3.364-1.937Z"/><path class="a" d="M3079.7,4571.121a25.4,25.4,0,0,0-8.039-7.75,19.022,19.022,0,0,1,7.355,3.784c.987-1.746,3.979-4.914,6.764-5.723A16.624,16.624,0,0,0,3079.7,4571.121Z"/></g></svg>