<svg xmlns="http://www.w3.org/2000/svg" width="27" height="27" viewBox="0 0 27 27"><defs><style>.a{fill:#666;}.b{fill:#e6e6e6;}</style></defs><g transform="translate(-2093.386 -4563.862)"><circle class="a" cx="13.5" cy="13.5" r="13.5" transform="translate(2093.386 4563.862)"/><path class="b" d="M2114.952,4578.448v5.566h-3.227v-5.193c0-1.3-.466-2.194-1.634-2.194a1.764,1.764,0,0,0-1.655,1.18,2.2,2.2,0,0,0-.107.786v5.42H2105.1s.043-8.794,0-9.705h3.227v1.376a.255.255,0,0,0-.021.031h.021v-.031a3.2,3.2,0,0,1,2.908-1.6c2.123,0,3.715,1.388,3.715,4.368Zm-13.226-8.818a1.682,1.682,0,1,0-.043,3.354h.021a1.682,1.682,0,1,0,.022-3.354Zm-1.634,14.384h3.225v-9.706h-3.225Z"/></g></svg>