<svg xmlns="http://www.w3.org/2000/svg" width="27" height="27" viewBox="0 0 27 27"><defs><style>.a{fill:#666;}.b{fill:#e6e6e6;}</style></defs><g transform="translate(-2178.994 -4563.862)"><circle class="a" cx="13.5" cy="13.5" r="13.5" transform="translate(2178.994 4563.862)"/><path class="b" d="M2200.763,4573.564a6.437,6.437,0,0,1-1.853.507,3.239,3.239,0,0,0,1.419-1.785,6.463,6.463,0,0,1-2.049.783,3.23,3.23,0,0,0-5.5,2.944,9.164,9.164,0,0,1-6.652-3.372,3.23,3.23,0,0,0,1,4.308,3.2,3.2,0,0,1-1.462-.4v.041a3.229,3.229,0,0,0,2.589,3.164,3.213,3.213,0,0,1-.85.113,3.293,3.293,0,0,1-.607-.057,3.231,3.231,0,0,0,3.014,2.241,6.51,6.51,0,0,1-4.777,1.336,9.176,9.176,0,0,0,14.127-7.732q0-.209-.009-.417a6.54,6.54,0,0,0,1.61-1.67Z"/></g></svg>